<svg xmlns="http://www.w3.org/2000/svg" id="Слой_1" fill="#cdccd2" data-name="Слой 1" viewBox="0 0 512 512"><g id="SVGRepo_iconCarrier"><defs><style>.cls-3{fill:#cdccd2}</style></defs><circle cx="255" cy="256" r="207.77" style="fill:#cdccd2"/><circle cx="255" cy="256.82" r="194.41" style="fill:#fff"/><path d="M174 203.79a146.05 146.05 0 0 1 36.94 4.71c31.31 8.24 52.71 25.69 63.87 36.23 0 0 46.11 49.27 42.53 101.27H343s-6-75.27-41.59-110.84a165.42 165.42 0 0 0-33.87-29.53c-37-24.16-74.53-27.24-93.53-27.3v25.46Z" class="cls-3"/><path d="M174 260.12V235s51.25-3.33 87.42 41.86c0 0 22.88 24.13 24.32 69.13h-25s1.38-36.59-30-64.35c0 .01-22.74-21.52-56.74-21.52Z" class="cls-3"/><circle cx="200.29" cy="320.38" r="24.14" class="cls-3"/></g></svg>