<svg xmlns="http://www.w3.org/2000/svg" fill="#cdccd2" data-name="Слой 1" viewBox="0 0 512 512"><circle cx="256" cy="252.35" r="207.77" style="fill:#cdccd2"/><circle cx="256" cy="252.35" r="194.41" style="fill:#fff"/><path d="M368.17 185.44c.64 3.46-22.09 22.65-22.09 22.65-42.79 222.42-193.57 110.57-193.57 110.57 36.35 5.19 65.5-18.14 65.5-18.14-37.92-4.39-41.35-30.39-41.35-30.39 7.62 3.32 20-.75 20-.75-40.29-15.62-35.5-42.93-35.5-42.93 7.06 4.05 20 4.94 20 4.94-32.72-22.9-13.69-58.46-13.69-58.46 30.12 37.95 75.33 44.44 87.87 45.53a43.11 43.11 0 0 1-1.17-10.11c0-24.81 20.32-44.94 45.39-44.94a45.52 45.52 0 0 1 33.75 14.87l.76.46 28.09-10.61c-1.24 10.84-18.34 23.4-19.42 24.2 1.32-.54 24.81-10.26 25.43-6.89Z" style="fill:#cdccd2"/></svg>