<svg xmlns="http://www.w3.org/2000/svg" id="Слой_1" fill="#cdccd2" data-name="Слой 1" viewBox="0 0 512 512"><g id="SVGRepo_iconCarrier"><defs><style>.cls-3{fill:#cdccd2}</style></defs><circle cx="259" cy="251" r="207.77" style="fill:#cdccd2"/><circle cx="258.44" cy="251.11" r="194.41" style="fill:#fff"/><path d="M278.41 271.54s-13.56-9.61-17.45-15.81.48-11.82 12.33-23.32 17.69-22.1 14.3-38.73S268.34 167 268.34 167h18.31l16.71-10.24c-12.86-.7-26.73-1.37-41.5-1-12.69.34-24.69.93-35.92 2-4.85 1.18-26.07 6.81-37.14 26.8a50.81 50.81 0 0 0-5.87 23.49c-.61 34.05 40.61 38.85 40.61 38.85s10.22.65 13.94-.79c0 0-8.92 12.83 5.33 28.29 0 0-34.81.22-52.53 12.06A37.59 37.59 0 0 0 169 318.57c-1.37 23.76 30 33.8 30 33.8s35.7 11.71 72.16-6.1S296 294.42 296 294.42s-2.7-10.42-17.59-22.88Zm-69.1-61.42c-6.46-20 0-39.86 14.46-44.42s31.38 7.93 37.84 27.91 0 39.86-14.45 44.42-31.39-7.94-37.85-27.91Zm44.15 133.71c-26.78 6.33-73-6.93-60.23-37.2s57.11-24.75 57.11-24.75l15.79 11.35c15.79 11.34 13.78 23.48 13.78 23.48s.33 20.8-26.45 27.12Z" class="cls-3"/><path d="M317 230h10.17l.08 21h20.67l.17 11h-20.92l.08 19h-9.84l-.57-20.45c-7-.05-14.06 0-21.09 0 .08-3.2.17-6.5.25-9.5h21V230Z" class="cls-3"/><path d="M-1064 0h3172v512h-3172z" style="fill:none"/></g></svg>