<svg xmlns="http://www.w3.org/2000/svg" width="20" height="20" version="1.0" viewBox="0 0 60 60"><defs><clipPath id="a"><path d="M2.395 2.102h55.207v55.5H2.395Zm0 0"/></clipPath></defs><g clip-path="url(#a)"><path fill="#77B6EA" d="M30.145 2.102c15.3 0 27.75 12.445 27.75 27.75 0 15.3-12.45 27.75-27.75 27.75-15.305 0-27.75-12.45-27.75-27.75 0-15.305 12.445-27.75 27.75-27.75Zm0 51.796c13.257 0 24.046-10.789 24.046-24.046C54.191 16.59 43.402 5.8 30.145 5.8 16.883 5.8 6.094 16.59 6.094 29.85c0 13.258 10.789 24.047 24.05 24.047Zm0 0"/></g><path fill="#77B6EA" d="M33 17.504a1.85 1.85 0 0 1 2.617 2.617l-9.73 9.73 9.73 9.727A1.85 1.85 0 0 1 33 42.195L21.96 31.156a1.853 1.853 0 0 1 0-2.613Zm0 0"/></svg>