<svg xmlns="http://www.w3.org/2000/svg" id="Слой_1" fill="#cdccd2" data-name="Слой 1" viewBox="0 0 512 512"><g id="SVGRepo_iconCarrier"><defs><style>.cls-3{fill:#cdccd2}</style></defs><circle cx="260" cy="253" r="207.77" style="fill:#cdccd2"/><circle cx="259.53" cy="253.8" r="194.41" style="fill:#fff"/><path d="m325.87 233.13-66.41-41 46.08-38.47 65.86 43-45.53 36.47zM259.46 192.13l-66.4 41-45.55-36.47 65.88-43 46.07 38.47zM325.87 233.13l45.53 36.47-65.86 43-46.08-38.47 66.41-41z" class="cls-3"/><path d="m193.06 233.13 66.4 41-46.07 38.47-65.88-43 45.55-36.47z" class="cls-3"/><path d="m259.63 282.47 44.41 38.33L322 307.85v13.6l-63.53 40.45L194 322.33v-13.47l19.07 11.9 46.56-38.29z" class="cls-3"/></g></svg>