<svg xmlns="http://www.w3.org/2000/svg" width="20" height="20" version="1.0" viewBox="0 0 60 60"><defs><clipPath id="a"><path d="M2.102 2.102h55.5v55.5h-55.5Zm0 0"/></clipPath></defs><g clip-path="url(#a)"><path fill="#77B6EA" d="M29.852 2.102c-15.305 0-27.75 12.445-27.75 27.75 0 15.3 12.445 27.75 27.75 27.75 15.3 0 27.75-12.45 27.75-27.75 0-15.305-12.45-27.75-27.75-27.75Zm0 51.796C16.59 53.898 5.8 43.11 5.8 29.852 5.8 16.59 16.59 5.8 29.85 5.8c13.258 0 24.047 10.789 24.047 24.05 0 13.258-10.789 24.047-24.046 24.047Zm0 0"/></g><path fill="#77B6EA" d="M26.992 17.504a1.85 1.85 0 0 0-2.617 2.617l9.73 9.73-9.73 9.727a1.85 1.85 0 0 0 2.617 2.617l11.04-11.039a1.846 1.846 0 0 0 0-2.613Zm0 0"/></svg>